<?xml version="1.0" standalone="no"?>
<!DOCTYPE svg PUBLIC "-//W3C//DTD SVG 20010904//EN"
 "http://www.w3.org/TR/2001/REC-SVG-20010904/DTD/svg10.dtd">
<svg xmlns="http://www.w3.org/2000/svg" version="1.0" viewBox="0 0 16 16" width="20px" height="20x">
<g fill="#000000" stroke="none" transform="scale(0.00133333,-0.00133333)">
<path d="M5310 11284 c-990 -69 -1886 -359 -2695 -874 -1218 -775 -2100 -1998 -2449 -3395 -65 -261 -108 -509 -143 -825 -25 -221 -25 -869 0 -1090 51 -455 125 -812 254 -1214 15 -48 16 -48 52 -43 20 3 155 26 301 51 324 55 687 107 1000 141 129 14 245 28 257 30 38 8 380 272 424 328 51 64 103 170 125 257 13 52 15 90 9 206 -8 161 -1 186 59 223 42 26 109 98 131 141 23 44 16 162 -20 315 -22 95 -28 149 -30 260 -1 77 -7 153 -13 168 -7 16 -12 36 -12 46 0 25 36 68 70 86 77 40 303 72 573 81 l189 7 36 75 c26 53 33 76 25 79 -19 7 -16 53 8 155 12 49 19 90 17 91 -1 1 -25 13 -53 26 -83 39 -204 122 -331 229 -175 146 -228 212 -265 332 -19 62 -20 75 -9 325 12 278 18 308 67 341 71 46 89 48 503 53 l395 6 41 185 c23 102 50 220 59 262 14 66 21 80 43 90 23 11 30 26 49 108 13 52 30 152 38 221 20 167 41 226 116 325 116 151 364 240 944 338 236 40 364 47 920 53 576 6 639 2 848 -57 179 -50 427 -168 500 -238 82 -78 135 -297 136 -558 1 -117 16 -252 56 -502 14 -84 25 -155 25 -157 0 -3 13 -5 29 -5 24 0 30 -5 35 -27 6 -33 38 -304 62 -529 l17 -162 141 -105 c78 -57 182 -131 231 -164 160 -107 488 -308 558 -342 75 -36 180 -130 197 -176 34 -89 -60 -169 -286 -244 -235 -78 -464 -108 -756 -97 -98 3 -191 9 -208 12 -27 6 -31 3 -41 -24 -11 -33 -59 -62 -103 -62 -31 0 -32 -12 -11 -93 21 -80 64 -161 161 -302 107 -157 145 -232 151 -306 7 -68 -14 -110 -75 -153 -55 -38 -93 -46 -213 -46 -72 0 -111 -4 -124 -14 -26 -19 -31 -106 -11 -185 9 -34 16 -73 16 -86 0 -22 -48 -74 -117 -124 l-32 -24 30 -58 c19 -38 29 -74 29 -101 0 -38 -6 -50 -53 -100 -30 -32 -66 -74 -80 -95 -26 -37 -26 -41 -16 -107 6 -38 9 -99 7 -136 -9 -156 -141 -307 -295 -336 -18 -3 -33 -10 -33 -14 0 -4 15 -11 33 -14 60 -11 324 -158 455 -253 46 -33 158 -104 249 -159 154 -92 273 -184 273 -211 0 -6 -42 -46 -92 -88 -155 -129 -227 -226 -334 -453 -113 -239 -126 -262 -172 -313 l-45 -50 28 -29 c16 -16 80 -66 143 -111 119 -85 223 -181 330 -307 89 -104 89 -106 41 -199 -66 -129 -153 -417 -229 -759 l-32 -142 21 -78 c11 -44 35 -122 53 -174 28 -81 36 -95 53 -92 11 2 97 34 190 71 l170 67 3 52 c3 57 1 55 73 36 34 -9 36 270 3 486 -20 126 -33 169 -119 383 -135 338 -235 678 -235 801 0 55 52 315 87 435 50 173 144 352 213 403 69 51 109 181 210 680 106 526 176 790 243 913 26 47 43 65 77 83 54 27 80 28 108 2 50 -47 53 -139 12 -357 -72 -373 -140 -831 -140 -940 0 -64 16 -73 121 -73 86 0 92 -1 119 -28 19 -19 36 -54 50 -103 53 -188 60 -205 94 -238 32 -31 41 -34 126 -42 65 -6 102 -15 126 -30 38 -23 76 -81 100 -152 18 -53 64 -97 100 -97 38 0 91 -26 109 -54 9 -14 23 -45 30 -70 19 -62 59 -638 52 -752 -6 -108 -45 -234 -112 -363 -24 -47 -43 -86 -42 -88 2 -1 68 58 147 131 896 822 1499 1898 1729 3086 77 398 95 608 95 1075 0 397 -6 503 -50 810 -131 922 -507 1826 -1074 2580 -845 1123 -2067 1888 -3440 2154 -368 71 -590 92 -1010 96 -190 1 -370 1 -400 -1z"/>
</g>
</svg>
